<svg width="247" height="612" viewBox="0 0 247 612" fill="none" xmlns="http://www.w3.org/2000/svg">
<path d="M66.4048 522.532L-96.1992 685.136L-258.803 522.532L-123.944 387.673L-276.011 235.607L-383.068 342.72L-248.266 477.579L-276.011 505.324L-438.559 342.72L-276.011 180.116L-68.4539 387.673L-203.313 522.532L-96.1992 629.646L38.6596 494.787L66.4048 522.532Z" fill="url(#paint0_linear_406_1085)" fill-opacity="0.2"/>
<path d="M246.216 342.723L83.6123 505.327L-123.889 297.77L10.9703 162.911L-96.1432 55.7976L-203.257 162.911L-113.351 252.817L-141.096 280.562L-258.747 162.911L-96.1432 0.363104L66.4608 162.911L-68.398 297.77L83.6123 449.836L190.726 342.723L55.9232 207.864L83.6684 180.119L246.216 342.723Z" fill="url(#paint1_linear_406_1085)" fill-opacity="0.2"/>
<path d="M-34.0524 387.679L-6.30859 415.423L111.325 297.789L83.5815 270.046L-34.0524 387.679Z" fill="url(#paint2_linear_406_1085)" fill-opacity="0.2"/>
<defs>
<linearGradient id="paint0_linear_406_1085" x1="-296.392" y1="449.986" x2="271.337" y2="170.837" gradientUnits="userSpaceOnUse">
<stop offset="0.177083" stop-color="#4EA3D0" stop-opacity="0.22"/>
<stop offset="1" stop-color="#E8F5FC" stop-opacity="0"/>
</linearGradient>
<linearGradient id="paint1_linear_406_1085" x1="-116.581" y1="270.203" x2="451.124" y2="-8.96553" gradientUnits="userSpaceOnUse">
<stop offset="0.177083" stop-color="#4EA3D0" stop-opacity="0.22"/>
<stop offset="1" stop-color="#E8F5FC" stop-opacity="0"/>
</linearGradient>
<linearGradient id="paint2_linear_406_1085" x1="13.8917" y1="369.387" x2="-19.4322" y2="274.637" gradientUnits="userSpaceOnUse">
<stop offset="0.177083" stop-color="#4EA3D0" stop-opacity="0.22"/>
<stop offset="1" stop-color="#E8F5FC" stop-opacity="0"/>
</linearGradient>
</defs>
</svg>
