<svg width="686" height="612" viewBox="0 0 686 612" fill="none" xmlns="http://www.w3.org/2000/svg">
<path d="M595.641 252.823L567.897 225.079L450.224 342.752L477.968 370.496L595.641 252.823Z" fill="url(#paint0_linear_406_1121)" fill-opacity="0.2"/>
<path fill-rule="evenodd" clip-rule="evenodd" d="M163.33 180.173L0.725762 342.777L163.274 505.381L191.019 477.635L56.2163 342.777L163.33 235.663L225.484 297.84L135.615 387.71L163.358 415.454L253.223 325.589L315.34 387.729L180.481 522.588L343.085 685.136L505.689 522.588L388.038 404.937L360.293 432.682L450.199 522.588L343.085 629.702L235.972 522.588L370.831 387.729L280.969 297.843L280.992 297.82L253.249 270.076L253.229 270.096L163.33 180.173Z" fill="url(#paint1_linear_406_1121)" fill-opacity="0.2"/>
<path fill-rule="evenodd" clip-rule="evenodd" d="M343.14 0.3629L180.536 162.967L208.282 190.712L343.14 55.8534L382.967 95.6796L292.746 185.241L320.388 213.086L410.711 123.424L450.254 162.967L315.395 297.826L522.952 505.383L685.5 342.779L522.952 180.175L495.207 207.92L630.009 342.779L522.952 449.892L370.886 297.826L505.744 162.967L420.773 77.9953L410.85 67.9996L410.813 68.036L343.14 0.3629Z" fill="url(#paint2_linear_406_1121)" fill-opacity="0.2"/>
<defs>
<linearGradient id="paint0_linear_406_1121" x1="547.686" y1="271.127" x2="581.024" y2="365.877" gradientUnits="userSpaceOnUse">
<stop offset="0.177083" stop-color="#4EA3D0" stop-opacity="0.22"/>
<stop offset="1" stop-color="#E8F5FC" stop-opacity="0"/>
</linearGradient>
<linearGradient id="paint1_linear_406_1121" x1="363.523" y1="415.296" x2="-204.181" y2="694.465" gradientUnits="userSpaceOnUse">
<stop offset="0.177083" stop-color="#4EA3D0" stop-opacity="0.22"/>
<stop offset="1" stop-color="#E8F5FC" stop-opacity="0"/>
</linearGradient>
<linearGradient id="paint2_linear_406_1121" x1="543.333" y1="235.513" x2="-24.3954" y2="514.662" gradientUnits="userSpaceOnUse">
<stop offset="0.177083" stop-color="#4EA3D0" stop-opacity="0.22"/>
<stop offset="1" stop-color="#E8F5FC" stop-opacity="0"/>
</linearGradient>
</defs>
</svg>
