<svg width="603" height="255" viewBox="0 0 603 255" fill="none" xmlns="http://www.w3.org/2000/svg">
<path fill-rule="evenodd" clip-rule="evenodd" d="M423.047 162.607L260.443 0.0031291L97.8394 162.551L125.585 190.296L260.443 55.4937L367.557 162.607L305.379 224.762L215.511 134.894L187.767 162.638L277.63 252.501L215.49 314.618L80.6317 179.759L-81.9163 342.363L80.6317 504.967L198.283 387.316L170.538 359.57L80.6317 449.476L-26.4818 342.363L80.6317 235.249L215.49 370.108L305.376 280.247L305.401 280.272L333.145 252.528L333.123 252.507L423.047 162.607Z" fill="url(#paint0_linear_406_1149)" fill-opacity="0.2"/>
<path fill-rule="evenodd" clip-rule="evenodd" d="M602.857 342.419L440.253 179.815L412.508 207.56L547.366 342.419L507.54 382.246L417.978 292.025L390.133 319.667L479.796 409.99L440.253 449.533L305.394 314.674L97.8372 522.231L260.441 684.779L423.045 522.231L395.3 494.486L260.441 629.288L153.328 522.231L305.394 370.164L440.253 505.023L525.225 420.051L535.22 410.129L535.183 410.093L602.857 342.419Z" fill="url(#paint1_linear_406_1149)" fill-opacity="0.2"/>
<defs>
<linearGradient id="paint0_linear_406_1149" x1="187.924" y1="362.8" x2="-91.2449" y2="-204.904" gradientUnits="userSpaceOnUse">
<stop offset="0.177083" stop-color="#4EA3D0" stop-opacity="0.22"/>
<stop offset="1" stop-color="#E8F5FC" stop-opacity="0"/>
</linearGradient>
<linearGradient id="paint1_linear_406_1149" x1="367.707" y1="542.612" x2="88.5575" y2="-25.1166" gradientUnits="userSpaceOnUse">
<stop offset="0.177083" stop-color="#4EA3D0" stop-opacity="0.22"/>
<stop offset="1" stop-color="#E8F5FC" stop-opacity="0"/>
</linearGradient>
</defs>
</svg>
