<svg width="393" height="395" viewBox="0 0 393 395" fill="none" xmlns="http://www.w3.org/2000/svg">
<path d="M392.877 197.5L196.438 0L0.000108286 197.5L196.438 395L392.877 197.5Z" fill="#E84631"/>
<path d="M125.006 262.414L60.4084 197.468L125.006 132.521L178.581 186.386L238.992 125.648L196.439 82.8881L142.864 136.73L131.842 125.648L196.439 60.7244L261.036 125.648L178.581 208.549L125.006 154.685L82.453 197.468L136.028 251.332L125.006 262.414Z" fill="white"/>
<path d="M196.439 334.233L131.841 269.286L214.297 186.408L267.872 240.272L310.424 197.489L267.872 154.707L232.155 190.617L221.133 179.535L267.872 132.543L332.447 197.489L267.872 262.436L214.297 208.571L153.886 269.286L196.439 312.069L250.013 258.227L261.036 269.309L196.439 334.233Z" fill="white"/>
<path d="M160.702 96.6192L149.681 107.7L196.428 154.701L207.45 143.62L160.702 96.6192Z" fill="white"/>
<path d="M178.578 222.294L167.556 233.376L214.288 280.36L225.31 269.279L178.578 222.294Z" fill="white"/>
<path d="M98.3418 159.391L87.2798 170.432L133.856 217.604L144.918 206.564L98.3418 159.391Z" fill="white"/>
</svg>
