<svg width="172" height="57" viewBox="0 0 172 57" fill="none" xmlns="http://www.w3.org/2000/svg">
<path d="M55.6991 28.5L27.8496 0.5L0.000116574 28.5L27.8496 56.5L55.6991 28.5Z" fill="#E84631"/>
<path d="M17.7225 37.703L8.56445 28.4954L17.7225 19.2878L25.318 26.9243L33.8826 18.3134L27.8498 12.2512L20.2543 19.8845L18.6917 18.3134L27.8498 9.10901L37.0079 18.3134L25.318 30.0665L17.7225 22.43L11.6898 28.4954L19.2852 36.1319L17.7225 37.703Z" fill="white"/>
<path d="M27.85 47.8851L18.6919 38.6775L30.3818 26.9276L37.9772 34.5641L44.01 28.4987L37.9772 22.4333L32.9136 27.5243L31.3509 25.9532L37.9772 19.2911L47.1322 28.4987L37.9772 37.7063L30.3818 30.0698L21.8172 38.6775L27.85 44.7429L35.4454 37.1096L37.0081 38.6807L27.85 47.8851Z" fill="white"/>
<path d="M22.7833 14.1979L21.2207 15.7689L27.8482 22.4323L29.4108 20.8613L22.7833 14.1979Z" fill="white"/>
<path d="M25.3175 32.0149L23.7549 33.5859L30.3802 40.247L31.9428 38.676L25.3175 32.0149Z" fill="white"/>
<path d="M13.9423 23.0972L12.374 24.6625L18.9772 31.3502L20.5455 29.785L13.9423 23.0972Z" fill="white"/>
<path d="M71.6132 19.5919H75.4236L83.9945 37.4072H80.2189L78.8014 34.4078H68.4501L67.0768 37.4072H63.2886L71.6101 19.5919H71.6132ZM77.384 31.4339L73.5516 23.3403L69.8201 31.4339H77.3808H77.384Z" fill="white"/>
<path d="M86.75 19.592H93.2468C95.1441 19.592 96.792 19.7983 98.1905 20.2078C99.589 20.6172 100.748 21.2044 101.666 21.9693C102.585 22.7342 103.27 23.661 103.718 24.7497C104.166 25.8415 104.394 27.0667 104.394 28.4251C104.394 29.7169 104.17 30.9135 103.725 32.0116C103.279 33.1098 102.597 34.0588 101.685 34.8618C100.773 35.6648 99.6143 36.2901 98.2158 36.744C96.8173 37.1978 95.1694 37.4232 93.2721 37.4232L86.7532 37.4105V19.592H86.75ZM94.1308 34.2842C95.2041 34.2842 96.1448 34.1445 96.953 33.8684C97.7612 33.5923 98.4367 33.1987 98.9766 32.6877C99.5164 32.1799 99.9236 31.5641 100.195 30.8405C100.467 30.12 100.602 29.3138 100.602 28.4251C100.602 27.5523 100.467 26.762 100.195 26.0605C99.9236 25.3591 99.5164 24.7624 98.9766 24.2704C98.4367 23.7785 97.7612 23.4008 96.953 23.1373C96.1448 22.8739 95.2041 22.7374 94.1308 22.7374H90.3425V34.2842H94.1308Z" fill="white"/>
<path d="M114.038 19.592H117.848L126.419 37.4073H122.644L121.226 34.408H110.875L109.502 37.4073H105.713L114.035 19.592H114.038ZM119.809 31.434L115.976 23.3405L112.245 31.434H119.806H119.809Z" fill="white"/>
<path d="M129.188 19.592H132.78L139.22 26.0891L145.66 19.592H149.253V37.4073H145.66V24.5942L139.22 30.8309L132.78 24.5942V37.4073H129.188V19.592Z" fill="white"/>
<path d="M157.325 27.3491H159.494V20.7442H157.325V19.592H163.02V20.7442H160.851V27.3491H163.02V28.5013H157.325V27.3491Z" fill="#E84631"/>
<path d="M167.611 20.7442H164.75V19.592H171.828V20.7442H168.968V28.5013H167.611V20.7442Z" fill="#E84631"/>
<path d="M153.513 28.4977L154.451 27.5551L153.513 26.6124L152.576 27.5551L153.513 28.4977Z" fill="#E84631"/>
</svg>
