<svg width="1920" height="1270" viewBox="0 0 1920 1270" fill="none" xmlns="http://www.w3.org/2000/svg">
<g clip-path="url(#clip0_142_12010)">
<rect width="1920" height="1270" fill="#06202D"/>
<mask id="path-1-inside-1_142_12010" fill="white">
<path fill-rule="evenodd" clip-rule="evenodd" d="M276.359 -507L76 -306.641L959.642 577.001L1843.28 -306.641L1642.93 -507L959.642 176.283L276.359 -507Z"/>
</mask>
<path fill-rule="evenodd" clip-rule="evenodd" d="M276.359 -507L76 -306.641L959.642 577.001L1843.28 -306.641L1642.93 -507L959.642 176.283L276.359 -507Z" fill="url(#paint0_linear_142_12010)"/>
<path d="M76 -306.641L73.8787 -308.762L71.7574 -306.641L73.8787 -304.52L76 -306.641ZM276.359 -507L278.48 -509.121L276.359 -511.243L274.238 -509.121L276.359 -507ZM959.642 577.001L957.521 579.123L959.642 581.244L961.763 579.123L959.642 577.001ZM1843.28 -306.641L1845.41 -304.52L1847.53 -306.641L1845.41 -308.762L1843.28 -306.641ZM1642.93 -507L1645.05 -509.121L1642.93 -511.243L1640.8 -509.121L1642.93 -507ZM959.642 176.283L957.521 178.404L959.642 180.526L961.763 178.404L959.642 176.283ZM78.1213 -304.52L278.48 -504.879L274.238 -509.121L73.8787 -308.762L78.1213 -304.52ZM961.763 574.88L78.1213 -308.762L73.8787 -304.52L957.521 579.123L961.763 574.88ZM1841.16 -308.762L957.521 574.88L961.763 579.123L1845.41 -304.52L1841.16 -308.762ZM1640.8 -504.879L1841.16 -304.52L1845.41 -308.762L1645.05 -509.121L1640.8 -504.879ZM1640.8 -509.121L957.521 174.162L961.763 178.404L1645.05 -504.879L1640.8 -509.121ZM961.763 174.162L278.48 -509.121L274.238 -504.879L957.521 178.404L961.763 174.162Z" fill="url(#paint1_linear_142_12010)" mask="url(#path-1-inside-1_142_12010)"/>
<mask id="path-3-inside-2_142_12010" fill="white">
<path fill-rule="evenodd" clip-rule="evenodd" d="M1642.93 1777.47L1843.28 1577.11L959.642 693.465L76.0001 1577.11L276.359 1777.47L959.642 1094.18L1642.93 1777.47Z"/>
</mask>
<path fill-rule="evenodd" clip-rule="evenodd" d="M1642.93 1777.47L1843.28 1577.11L959.642 693.465L76.0001 1577.11L276.359 1777.47L959.642 1094.18L1642.93 1777.47Z" fill="url(#paint2_linear_142_12010)"/>
<path d="M1843.28 1577.11L1845.41 1579.23L1847.53 1577.11L1845.41 1574.99L1843.28 1577.11ZM1642.93 1777.47L1640.8 1779.59L1642.93 1781.71L1645.05 1779.59L1642.93 1777.47ZM959.642 693.465L961.764 691.344L959.642 689.222L957.521 691.344L959.642 693.465ZM76.0001 1577.11L73.8788 1574.99L71.7575 1577.11L73.8788 1579.23L76.0001 1577.11ZM276.359 1777.47L274.238 1779.59L276.359 1781.71L278.481 1779.59L276.359 1777.47ZM959.642 1094.18L961.764 1092.06L959.642 1089.94L957.521 1092.06L959.642 1094.18ZM1841.16 1574.99L1640.8 1775.34L1645.05 1779.59L1845.41 1579.23L1841.16 1574.99ZM957.521 695.586L1841.16 1579.23L1845.41 1574.99L961.764 691.344L957.521 695.586ZM78.1215 1579.23L961.764 695.586L957.521 691.344L73.8788 1574.99L78.1215 1579.23ZM278.481 1775.34L78.1215 1574.99L73.8788 1579.23L274.238 1779.59L278.481 1775.34ZM278.481 1779.59L961.764 1096.3L957.521 1092.06L274.238 1775.34L278.481 1779.59ZM957.521 1096.3L1640.8 1779.59L1645.05 1775.34L961.764 1092.06L957.521 1096.3Z" fill="url(#paint3_linear_142_12010)" mask="url(#path-3-inside-2_142_12010)"/>
<mask id="path-5-inside-3_142_12010" fill="white">
<path fill-rule="evenodd" clip-rule="evenodd" d="M2271 -48.6408L2070.64 -249L1187 634.642L2070.64 1518.28L2271 1317.93L1587.72 634.642L2271 -48.6408Z"/>
</mask>
<path fill-rule="evenodd" clip-rule="evenodd" d="M2271 -48.6408L2070.64 -249L1187 634.642L2070.64 1518.28L2271 1317.93L1587.72 634.642L2271 -48.6408Z" fill="url(#paint4_linear_142_12010)"/>
<path d="M2070.64 -249L2072.76 -251.121L2070.64 -253.243L2068.52 -251.121L2070.64 -249ZM2271 -48.6408L2273.12 -46.5195L2275.24 -48.6408L2273.12 -50.7621L2271 -48.6408ZM1187 634.642L1184.88 632.521L1182.76 634.642L1184.88 636.763L1187 634.642ZM2070.64 1518.28L2068.52 1520.41L2070.64 1522.53L2072.76 1520.41L2070.64 1518.28ZM2271 1317.93L2273.12 1320.05L2275.24 1317.93L2273.12 1315.8L2271 1317.93ZM1587.72 634.642L1585.6 632.521L1583.48 634.642L1585.6 636.763L1587.72 634.642ZM2068.52 -246.879L2268.88 -46.5195L2273.12 -50.7621L2072.76 -251.121L2068.52 -246.879ZM1189.12 636.763L2072.76 -246.879L2068.52 -251.121L1184.88 632.521L1189.12 636.763ZM2072.76 1516.16L1189.12 632.521L1184.88 636.763L2068.52 1520.41L2072.76 1516.16ZM2268.88 1315.8L2068.52 1516.16L2072.76 1520.41L2273.12 1320.05L2268.88 1315.8ZM2273.12 1315.8L1589.84 632.521L1585.6 636.763L2268.88 1320.05L2273.12 1315.8ZM1589.84 636.763L2273.12 -46.5195L2268.88 -50.7621L1585.6 632.521L1589.84 636.763Z" fill="url(#paint5_linear_142_12010)" mask="url(#path-5-inside-3_142_12010)"/>
<mask id="path-7-inside-4_142_12010" fill="white">
<path fill-rule="evenodd" clip-rule="evenodd" d="M-352 1317.93L-151.641 1518.28L732.001 634.642L-151.641 -249L-352 -48.6409L331.283 634.642L-352 1317.93Z"/>
</mask>
<path fill-rule="evenodd" clip-rule="evenodd" d="M-352 1317.93L-151.641 1518.28L732.001 634.642L-151.641 -249L-352 -48.6409L331.283 634.642L-352 1317.93Z" fill="url(#paint6_linear_142_12010)"/>
<path d="M-151.641 1518.28L-153.762 1520.41L-151.641 1522.53L-149.519 1520.41L-151.641 1518.28ZM-352 1317.93L-354.121 1315.8L-356.243 1317.93L-354.121 1320.05L-352 1317.93ZM732.001 634.642L734.123 636.764L736.244 634.642L734.123 632.521L732.001 634.642ZM-151.641 -249L-149.519 -251.121L-151.641 -253.243L-153.762 -251.121L-151.641 -249ZM-352 -48.6409L-354.121 -50.7622L-356.242 -48.6409L-354.121 -46.5195L-352 -48.6409ZM331.283 634.642L333.404 636.764L335.526 634.642L333.404 632.521L331.283 634.642ZM-149.519 1516.16L-349.879 1315.8L-354.121 1320.05L-153.762 1520.41L-149.519 1516.16ZM729.88 632.521L-153.762 1516.16L-149.519 1520.41L734.123 636.764L729.88 632.521ZM-153.762 -246.879L729.88 636.764L734.123 632.521L-149.519 -251.121L-153.762 -246.879ZM-349.878 -46.5195L-149.519 -246.879L-153.762 -251.121L-354.121 -50.7622L-349.878 -46.5195ZM-354.121 -46.5195L329.162 636.764L333.404 632.521L-349.878 -50.7622L-354.121 -46.5195ZM329.162 632.521L-354.121 1315.8L-349.879 1320.05L333.404 636.764L329.162 632.521Z" fill="url(#paint7_linear_142_12010)" mask="url(#path-7-inside-4_142_12010)"/>
<g filter="url(#filter0_f_142_12010)">
<ellipse cx="960" cy="1820.5" rx="982" ry="465.5" fill="#E84631"/>
</g>
</g>
<defs>
<filter id="filter0_f_142_12010" x="-502" y="875" width="2924" height="1891" filterUnits="userSpaceOnUse" color-interpolation-filters="sRGB">
<feFlood flood-opacity="0" result="BackgroundImageFix"/>
<feBlend mode="normal" in="SourceGraphic" in2="BackgroundImageFix" result="shape"/>
<feGaussianBlur stdDeviation="240" result="effect1_foregroundBlur_142_12010"/>
</filter>
<linearGradient id="paint0_linear_142_12010" x1="959.642" y1="-507" x2="959.642" y2="577.001" gradientUnits="userSpaceOnUse">
<stop stop-color="#0E4F72" stop-opacity="0.2"/>
<stop offset="1" stop-color="#0E4F72" stop-opacity="0"/>
</linearGradient>
<linearGradient id="paint1_linear_142_12010" x1="959.642" y1="-507" x2="959.642" y2="577.001" gradientUnits="userSpaceOnUse">
<stop stop-color="#E84631"/>
<stop offset="1" stop-opacity="0"/>
</linearGradient>
<linearGradient id="paint2_linear_142_12010" x1="959.642" y1="1777.47" x2="959.642" y2="693.465" gradientUnits="userSpaceOnUse">
<stop stop-color="#0E4F72" stop-opacity="0.2"/>
<stop offset="1" stop-color="#0E4F72" stop-opacity="0"/>
</linearGradient>
<linearGradient id="paint3_linear_142_12010" x1="959.642" y1="1777.47" x2="959.642" y2="693.465" gradientUnits="userSpaceOnUse">
<stop stop-color="#E84631"/>
<stop offset="1" stop-opacity="0"/>
</linearGradient>
<linearGradient id="paint4_linear_142_12010" x1="2271" y1="634.642" x2="1187" y2="634.642" gradientUnits="userSpaceOnUse">
<stop stop-color="#0E4F72" stop-opacity="0.2"/>
<stop offset="1" stop-color="#0E4F72" stop-opacity="0"/>
</linearGradient>
<linearGradient id="paint5_linear_142_12010" x1="2271" y1="634.642" x2="1187" y2="634.642" gradientUnits="userSpaceOnUse">
<stop stop-color="#E84631"/>
<stop offset="1" stop-opacity="0"/>
</linearGradient>
<linearGradient id="paint6_linear_142_12010" x1="-352" y1="634.642" x2="732.001" y2="634.642" gradientUnits="userSpaceOnUse">
<stop stop-color="#0E4F72" stop-opacity="0.2"/>
<stop offset="1" stop-color="#0E4F72" stop-opacity="0"/>
</linearGradient>
<linearGradient id="paint7_linear_142_12010" x1="-352" y1="634.642" x2="732.001" y2="634.642" gradientUnits="userSpaceOnUse">
<stop stop-color="#E84631"/>
<stop offset="1" stop-opacity="0"/>
</linearGradient>
<clipPath id="clip0_142_12010">
<rect width="1920" height="1270" fill="white"/>
</clipPath>
</defs>
</svg>
