<svg width="172" height="56" viewBox="0 0 172 56" fill="none" xmlns="http://www.w3.org/2000/svg">
<path d="M55.6991 28L27.8496 0L0.000116574 28L27.8496 56L55.6991 28Z" fill="#E84631"/>
<path d="M17.7225 37.203L8.56445 27.9954L17.7225 18.7878L25.318 26.4243L33.8826 17.8134L27.8498 11.7512L20.2543 19.3845L18.6917 17.8134L27.8498 8.60901L37.0079 17.8134L25.318 29.5665L17.7225 21.93L11.6898 27.9954L19.2852 35.6319L17.7225 37.203Z" fill="white"/>
<path d="M27.85 47.3851L18.6919 38.1775L30.3818 26.4276L37.9772 34.0641L44.01 27.9987L37.9772 21.9333L32.9136 27.0243L31.3509 25.4532L37.9772 18.7911L47.1322 27.9987L37.9772 37.2063L30.3818 29.5698L21.8172 38.1775L27.85 44.2429L35.4454 36.6096L37.0081 38.1807L27.85 47.3851Z" fill="white"/>
<path d="M22.7833 13.6979L21.2207 15.2689L27.8482 21.9323L29.4108 20.3613L22.7833 13.6979Z" fill="white"/>
<path d="M25.3175 31.5149L23.7549 33.0859L30.3802 39.747L31.9428 38.176L25.3175 31.5149Z" fill="white"/>
<path d="M13.9426 22.5972L12.3743 24.1625L18.9775 30.8502L20.5458 29.285L13.9426 22.5972Z" fill="white"/>
<path d="M71.6132 19.0919H75.4236L83.9945 36.9072H80.2189L78.8014 33.9078H68.4501L67.0768 36.9072H63.2886L71.6101 19.0919H71.6132ZM77.384 30.9339L73.5516 22.8403L69.8201 30.9339H77.3808H77.384Z" fill="#06202D"/>
<path d="M86.7502 19.092H93.2471C95.1444 19.092 96.7923 19.2983 98.1908 19.7078C99.5892 20.1172 100.748 20.7044 101.666 21.4693C102.585 22.2342 103.27 23.161 103.718 24.2497C104.167 25.3415 104.394 26.5667 104.394 27.9251C104.394 29.2169 104.17 30.4135 103.725 31.5116C103.28 32.6098 102.598 33.5588 101.685 34.3618C100.773 35.1648 99.6145 35.7901 98.216 36.244C96.8175 36.6978 95.1696 36.9232 93.2723 36.9232L86.7534 36.9105V19.092H86.7502ZM94.131 33.7842C95.2043 33.7842 96.1451 33.6445 96.9533 33.3684C97.7614 33.0923 98.437 32.6987 98.9768 32.1877C99.5166 31.6799 99.9239 31.0641 100.195 30.3405C100.467 29.62 100.603 28.8138 100.603 27.9251C100.603 27.0523 100.467 26.262 100.195 25.5605C99.9239 24.8591 99.5166 24.2624 98.9768 23.7704C98.437 23.2785 97.7614 22.9008 96.9533 22.6373C96.1451 22.3739 95.2043 22.2374 94.131 22.2374H90.3428V33.7842H94.131Z" fill="#06202D"/>
<path d="M114.038 19.092H117.848L126.419 36.9073H122.644L121.226 33.908H110.875L109.502 36.9073H105.713L114.035 19.092H114.038ZM119.809 30.934L115.976 22.8405L112.245 30.934H119.806H119.809Z" fill="#06202D"/>
<path d="M129.188 19.092H132.78L139.22 25.5891L145.66 19.092H149.253V36.9073H145.66V24.0942L139.22 30.3309L132.78 24.0942V36.9073H129.188V19.092Z" fill="#06202D"/>
<path d="M157.325 26.8491H159.494V20.2442H157.325V19.092H163.02V20.2442H160.852V26.8491H163.02V28.0013H157.325V26.8491Z" fill="#E84631"/>
<path d="M167.611 20.2442H164.75V19.092H171.828V20.2442H168.968V28.0013H167.611V20.2442Z" fill="#E84631"/>
<path d="M153.513 27.9977L154.451 27.0551L153.513 26.1124L152.576 27.0551L153.513 27.9977Z" fill="#E84631"/>
</svg>
