<svg width="336" height="110" viewBox="0 0 336 110" fill="none" xmlns="http://www.w3.org/2000/svg">
<path d="M108.916 54.7524L54.458 0L-3.64965e-05 54.7524L54.458 109.505L108.916 54.7524Z" fill="white"/>
<path d="M34.6552 72.7488L16.7471 54.7439L34.6552 36.739L49.5076 51.6717L66.2551 34.8336L54.4584 22.9793L39.606 37.9058L36.5503 34.8336L54.4584 16.835L72.3665 34.8336L49.5076 57.8161L34.6552 42.8834L22.8584 54.7439L37.7108 69.6766L34.6552 72.7488Z" fill="#E84631"/>
<path d="M54.4579 92.6584L36.5498 74.6535L59.4087 51.6773L74.2611 66.61L86.0579 54.7495L74.2611 42.889L64.3595 52.8441L61.3038 49.7719L74.2611 36.7446L92.1631 54.7495L74.2611 72.7544L59.4087 57.8217L42.6612 74.6535L54.4579 86.514L69.3103 71.5876L72.366 74.6598L54.4579 92.6584Z" fill="#E84631"/>
<path d="M44.5506 26.7844L41.4951 29.8564L54.4549 42.8862L57.5104 39.8142L44.5506 26.7844Z" fill="#E84631"/>
<path d="M49.5062 61.6257L46.4507 64.6978L59.4061 77.7232L62.4616 74.6511L49.5062 61.6257Z" fill="#E84631"/>
<path d="M27.263 44.1868L24.1963 47.2476L37.1085 60.325L40.1752 57.2643L27.263 44.1868Z" fill="#E84631"/>
<path d="M140.035 37.333H147.486L164.246 72.1697H156.863L154.091 66.3047H133.85L131.165 72.1697H123.757L140.029 37.333H140.035ZM151.32 60.4892L143.826 44.6628L136.529 60.4892H151.313H151.32Z" fill="white"/>
<path d="M169.635 37.3325H182.339C186.049 37.3325 189.271 37.7359 192.006 38.5366C194.741 39.3372 197.006 40.4854 198.803 41.9811C200.599 43.4769 201.938 45.2892 202.815 47.418C203.692 49.553 204.136 51.9487 204.136 54.605C204.136 57.1311 203.698 59.4709 202.827 61.6183C201.957 63.7657 200.624 65.6215 198.84 67.1917C197.056 68.7619 194.79 69.9846 192.055 70.8721C189.321 71.7596 186.098 72.2003 182.388 72.2003L169.641 72.1755V37.3325H169.635ZM184.067 66.0621C186.166 66.0621 188.006 65.789 189.586 65.2491C191.166 64.7091 192.487 63.9395 193.543 62.9403C194.599 61.9472 195.395 60.7432 195.926 59.3281C196.457 57.9193 196.722 56.3428 196.722 54.605C196.722 52.8983 196.457 51.3529 195.926 49.9812C195.395 48.6096 194.599 47.4428 193.543 46.4808C192.487 45.5188 191.166 44.7802 189.586 44.2651C188.006 43.75 186.166 43.4831 184.067 43.4831H176.66V66.0621H184.067Z" fill="white"/>
<path d="M222.995 37.3325H230.446L247.206 72.1693H239.823L237.051 66.3042H216.809L214.124 72.1693H206.716L222.989 37.3325H222.995ZM234.279 60.4887L226.785 44.6623L219.488 60.4887H234.273H234.279Z" fill="white"/>
<path d="M252.619 37.3325H259.644L272.237 50.0371L284.83 37.3325H291.855V72.1693H284.83V47.1139L272.237 59.3095L259.644 47.1139V72.1693H252.619V37.3325Z" fill="white"/>
<path d="M307.641 52.501H311.882V39.5855H307.641V37.3325H318.777V39.5855H314.536V52.501H318.777V54.754H307.641V52.501Z" fill="white"/>
<path d="M327.752 39.5855H322.16V37.3325H336V39.5855H330.407V54.754H327.752V39.5855Z" fill="white"/>
<path d="M300.186 54.747L302.02 52.9038L300.186 51.0606L298.353 52.9038L300.186 54.747Z" fill="white"/>
</svg>
