<?xml version="1.0" encoding="UTF-8"?><svg xmlns="http://www.w3.org/2000/svg" viewBox="0 0 544.3 176.43"><defs><style>.d{fill:#007bbc;}.e{fill:#ea5744;}.f{fill:#fff;}.g{fill:#222128;}</style></defs><g id="a"/><g id="b"><g id="c"><g><g><rect class="e" x="25.84" y="25.84" width="124.76" height="124.76" transform="translate(88.22 -36.54) rotate(45)"/><polygon class="f" points="56.14 117.22 27.13 88.21 56.14 59.2 80.2 83.26 107.33 56.13 88.22 37.03 64.16 61.08 59.21 56.13 88.22 27.13 117.23 56.13 80.2 93.16 56.14 69.1 37.03 88.21 61.09 112.27 56.14 117.22"/><polygon class="f" points="88.22 149.3 59.21 120.29 96.24 83.27 120.3 107.33 139.41 88.22 120.3 69.11 104.26 85.15 99.31 80.2 120.3 59.21 149.3 88.22 120.3 117.23 96.24 93.17 69.11 120.29 88.22 139.4 112.28 115.35 117.23 120.3 88.22 149.3"/><rect class="f" x="76.7" y="41.29" width="7" height="29.69" transform="translate(-16.21 73.15) rotate(-45)"/><rect class="f" x="84.72" y="97.43" width="7" height="29.68" transform="translate(-53.55 95.26) rotate(-45)"/><rect class="f" x="48.64" y="69.35" width="7" height="29.69" transform="translate(-44.18 61.18) rotate(-44.79)"/></g><g><path class="g" d="M226.85,60.15h12.07l27.15,56.13h-11.96l-4.49-9.45h-32.79l-4.35,9.45h-12l26.36-56.13Zm18.28,37.31l-12.14-25.5-11.82,25.5h23.95Z"/><path class="g" d="M274.8,60.15h20.58c6.01,0,11.23,.65,15.66,1.94s8.1,3.14,11.01,5.55c2.91,2.41,5.08,5.33,6.5,8.76,1.42,3.44,2.14,7.3,2.14,11.58,0,4.07-.71,7.84-2.12,11.3-1.41,3.46-3.57,6.45-6.46,8.98s-6.56,4.5-10.99,5.93-9.65,2.14-15.66,2.14l-20.65-.04V60.15Zm23.38,46.29c3.4,0,6.38-.44,8.94-1.31s4.7-2.11,6.41-3.72c1.71-1.6,3-3.54,3.86-5.82,.86-2.27,1.29-4.81,1.29-7.61,0-2.75-.43-5.24-1.29-7.45s-2.15-4.09-3.86-5.64-3.85-2.74-6.41-3.57-5.54-1.26-8.94-1.26h-12v36.38h12Z"/><path class="g" d="M361.24,60.15h12.07l27.15,56.13h-11.96l-4.49-9.45h-32.79l-4.35,9.45h-12l26.36-56.13Zm18.28,37.31l-12.14-25.5-11.82,25.5h23.95Z"/><path class="g" d="M409.23,60.15h11.38l20.4,20.47,20.4-20.47h11.38v56.13h-11.38v-40.37l-20.4,19.65-20.4-19.65v40.37h-11.38V60.15Z"/></g><g><path class="d" d="M498.36,84.59h6.87v-20.81h-6.87v-3.63h18.04v3.63h-6.87v20.81h6.87v3.63h-18.04v-3.63Z"/><path class="d" d="M530.94,63.78h-9.06v-3.63h22.42v3.63h-9.06v24.44h-4.3v-24.44Z"/><rect class="d" x="484.18" y="83.14" width="4.2" height="4.2" transform="translate(890.41 -198.34) rotate(135)"/></g></g></g></g></svg>