<svg xmlns="http://www.w3.org/2000/svg" viewBox="0 0 115.59 61.53">
  <g fill="none" fill-rule="evenodd">
    <path d="M40.54 23.343c3.136 3.677 4.843 8.294 4.843 13.19 0 10.592-8.123 19.323-18.466 20.291-3.136-3.677-4.842-8.294-4.842-13.19 0-10.593 8.122-19.324 18.466-20.291m1.914-4.71c-13.807 0-25 11.193-25 25a24.93 24.93 0 0 0 7.547 17.9c13.807 0 25-11.193 25-25 0-7.017-2.89-13.359-7.547-17.9" fill="#0CC988"/>
    <path d="m64.973 30.447-3.117-3.55h-.741v3.55h-2.548V20.105h5.234c2.238 0 3.72 1.358 3.72 3.38 0 1.698-1.05 2.917-2.717 3.288l3.242 3.674h-3.073Zm-1.451-5.68c.911 0 1.498-.495 1.498-1.25 0-.741-.587-1.235-1.498-1.235h-2.407v2.484h2.407Zm13.482 1.805c0 2.455-1.946 4.09-4.245 4.09-2.346 0-4.291-1.635-4.291-4.09 0-2.438 1.945-4.074 4.29-4.074 2.3 0 4.246 1.636 4.246 4.074m-2.378 0c0-1.203-.91-2.006-1.867-2.006-1.004 0-1.914.803-1.914 2.006 0 1.22.91 2.007 1.914 2.007.957 0 1.867-.787 1.867-2.007m7.101 6.499h-2.67l1.25-2.886-3.211-7.503h2.656l1.836 4.524 1.961-4.524h2.654zm13.254-2.624h-2.47v-.617c-.602.54-1.404.848-2.407.848-2.053 0-3.783-1.651-3.783-4.105 0-2.44 1.73-4.106 3.783-4.106 1.003 0 1.805.309 2.408.849v-.618h2.47v7.749Zm-2.47-3.874c0-1.19-.895-2.007-1.898-2.007-1.08 0-1.867.818-1.867 2.007 0 1.204.787 2.006 1.867 2.006 1.003 0 1.899-.802 1.899-2.006Zm4.279 3.874h2.47V19.333h-2.47zm-35.675 8.9h4.847v2.222h-4.847v3.705h-2.547V34.932h7.995v2.238h-5.448zm6.584 5.928h2.47V34.161h-2.47zM80.034 41.4c0 2.454-1.946 4.09-4.245 4.09-2.346 0-4.291-1.636-4.291-4.09 0-2.439 1.945-4.076 4.29-4.076 2.3 0 4.246 1.637 4.246 4.076m-2.378 0c0-1.204-.91-2.007-1.867-2.007-1.004 0-1.914.803-1.914 2.007 0 1.22.91 2.006 1.914 2.006.956 0 1.867-.787 1.867-2.006m9.408-3.921-.108 2.47h-.448c-1.727 0-2.67.895-2.67 2.902v2.422H81.37v-7.748h2.47v1.482c.555-.926 1.404-1.59 2.67-1.59.216 0 .37.016.555.062m9.273 7.795h-2.47v-.618c-.602.541-1.404.85-2.408.85-2.052 0-3.782-1.652-3.782-4.106 0-2.44 1.73-4.107 3.782-4.107 1.004 0 1.806.31 2.408.85v-.618h2.47v7.749Zm-2.47-3.874c0-1.19-.895-2.007-1.898-2.007-1.081 0-1.867.818-1.867 2.007 0 1.204.786 2.006 1.867 2.006 1.003 0 1.898-.802 1.898-2.006ZM67.999 60.101h-2.531v-4.09h-4.354v4.09h-2.546V49.759h2.546v4.029h4.354v-4.029h2.531zm9.891-3.874c0 2.454-1.945 4.09-4.245 4.09-2.346 0-4.291-1.636-4.291-4.09 0-2.439 1.945-4.075 4.291-4.075 2.3 0 4.245 1.636 4.245 4.075m-2.377 0c0-1.204-.911-2.007-1.868-2.007-1.003 0-1.914.803-1.914 2.007 0 1.22.911 2.006 1.914 2.006.957 0 1.868-.787 1.868-2.006m3.732 3.874h2.469V48.987h-2.469zm4.251 0h2.47V48.987h-2.47zM95.98 60.1h-2.47v-.616c-.602.54-1.404.849-2.408.849-2.053 0-3.781-1.652-3.781-4.106 0-2.44 1.728-4.106 3.781-4.106 1.004 0 1.806.309 2.408.849v-.618h2.47V60.1Zm-2.47-3.873c0-1.19-.895-2.007-1.898-2.007-1.08 0-1.868.818-1.868 2.007 0 1.204.787 2.006 1.868 2.006 1.003 0 1.898-.802 1.898-2.006Zm12.137-.88V60.1h-2.454v-4.23c0-.91-.54-1.527-1.327-1.527-.973 0-1.605.663-1.605 2.16V60.1h-2.47v-7.749h2.47v.74c.585-.616 1.404-.971 2.376-.971 1.806 0 3.01 1.28 3.01 3.226m9.947 4.754h-2.47v-.616c-.602.54-1.404.849-2.408.849-2.053 0-3.781-1.652-3.781-4.106 0-2.44 1.728-4.106 3.781-4.106 1.004 0 1.806.309 2.408.849v-3.983h2.47V60.1Zm-2.47-3.873c0-1.19-.895-2.007-1.898-2.007-1.08 0-1.868.818-1.868 2.007 0 1.204.787 2.006 1.868 2.006 1.003 0 1.898-.802 1.898-2.006Z" fill="#000"/>
    <path fill="#3A4D41" d="M23.11 11.533h3.779V0H23.11zm-6.833 1.497-2.651-9.247 3.634-1.042 2.65 9.247zm-6.181 3.34-4.09-6.545 3.206-2.003 4.089 6.545zm23.659-3.34-3.632-1.042 2.651-9.247 3.633 1.042zm6.182 3.34-3.205-2.003 4.09-6.545 3.205 2.003zm-32.39 2.264A24.927 24.927 0 0 0 0 36.534C0 50.34 11.193 61.532 25 61.532a24.923 24.923 0 0 0 7.547-17.9c0-13.807-11.193-25-25-25m1.914 4.71c10.344.967 18.466 9.698 18.466 20.29 0 4.897-1.706 9.513-4.841 13.191-10.344-.968-18.466-9.699-18.466-20.29 0-4.897 1.706-9.514 4.841-13.192"/>
  </g>
</svg>