<svg width="793" height="1270" viewBox="0 0 793 1270" fill="none" xmlns="http://www.w3.org/2000/svg">
<mask id="path-1-inside-1_368_1385" fill="white">
<path fill-rule="evenodd" clip-rule="evenodd" d="M1084.47 -48.6408L884.107 -249L0.465049 634.642L884.107 1518.28L1084.47 1317.93L401.183 634.642L1084.47 -48.6408Z"/>
</mask>
<path fill-rule="evenodd" clip-rule="evenodd" d="M1084.47 -48.6408L884.107 -249L0.465049 634.642L884.107 1518.28L1084.47 1317.93L401.183 634.642L1084.47 -48.6408Z" fill="url(#paint0_linear_368_1385)"/>
<path d="M884.107 -249L886.228 -251.121L884.107 -253.243L881.986 -251.121L884.107 -249ZM1084.47 -48.6408L1086.59 -46.5195L1088.71 -48.6408L1086.59 -50.7621L1084.47 -48.6408ZM0.465049 634.642L-1.65629 632.521L-3.77763 634.642L-1.65629 636.763L0.465049 634.642ZM884.107 1518.28L881.986 1520.41L884.107 1522.53L886.228 1520.41L884.107 1518.28ZM1084.47 1317.93L1086.59 1320.05L1088.71 1317.93L1086.59 1315.8L1084.47 1317.93ZM401.183 634.642L399.062 632.521L396.941 634.642L399.062 636.763L401.183 634.642ZM881.986 -246.879L1082.34 -46.5195L1086.59 -50.7621L886.228 -251.121L881.986 -246.879ZM2.58639 636.763L886.228 -246.879L881.986 -251.121L-1.65629 632.521L2.58639 636.763ZM886.228 1516.16L2.58639 632.521L-1.65629 636.763L881.986 1520.41L886.228 1516.16ZM1082.34 1315.8L881.986 1516.16L886.228 1520.41L1086.59 1320.05L1082.34 1315.8ZM1086.59 1315.8L403.305 632.521L399.062 636.763L1082.34 1320.05L1086.59 1315.8ZM403.305 636.763L1086.59 -46.5195L1082.34 -50.7621L399.062 632.521L403.305 636.763Z" fill="url(#paint1_linear_368_1385)" mask="url(#path-1-inside-1_368_1385)"/>
<defs>
<linearGradient id="paint0_linear_368_1385" x1="1084.47" y1="634.642" x2="0.465049" y2="634.642" gradientUnits="userSpaceOnUse">
<stop stop-color="#0E4F72" stop-opacity="0.2"/>
<stop offset="1" stop-color="#0E4F72" stop-opacity="0"/>
</linearGradient>
<linearGradient id="paint1_linear_368_1385" x1="1084.47" y1="634.642" x2="0.465049" y2="634.642" gradientUnits="userSpaceOnUse">
<stop stop-color="#E84631"/>
<stop offset="1" stop-opacity="0"/>
</linearGradient>
</defs>
</svg>
