<?xml version="1.0" encoding="utf-8"?>
<!-- Generator: Adobe Illustrator 19.2.1, SVG Export Plug-In . SVG Version: 6.00 Build 0)  -->
<svg version="1.1" id="layer" xmlns="http://www.w3.org/2000/svg" xmlns:xlink="http://www.w3.org/1999/xlink" x="0px" y="0px"
	 viewBox="0 0 652 652" style="enable-background:new 0 0 652 652;" xml:space="preserve">
<style type="text/css">
	.st0{fill:#0099FF;}
</style>
<g id="Page-1">
	<g id="UWV_blue_tcm106-423784">
		<g id="Group">
			<path id="Path" class="st0" d="M619.9,204.5c-0.9-26.7-8.3-51.2-22.8-72.2C533.9,41.8,360.1,52.8,208.8,157
				C57.5,261.1-12.5,419.4,50.6,509.9c62.8,90.1,236.4,79.2,387.3-23.7c0.8-0.8,0.2-1.5-0.7-1.1c-83.8,47.8-156.9,48-189.6,0
				c-33-48.4,1.7-129.4,72.6-176.4c26.3-17.4,55.2-30,80.4-34.8l-9.5,47.7c-0.4,2,0.1,3.9,1.6,5c1.5,1.1,3.7,0.9,5.5-0.2l145.9-79.6
				c1.7-1,3.1-2.7,3.5-4.8c0.4-2.1-0.3-3.9-1.7-4.8l-114.2-78.3c-1.4-0.9-3.8-1.5-5.7-0.4c-1.9,1-3.2,2.9-3.5,4.8l-7.2,35.6
				c-45.2,3.1-92.2,20.6-136,50.1c-97.7,65.8-141.2,171.8-97,236.7c11.7,17.2,28.4,29.7,48.5,37.7c3,1.2,3,1.1,3,1.1l-0.1,0.6
				c-36.1-5.5-64.6-24.3-82.4-49.8c-54.5-78.2,2.7-212,126.5-297.2c123.8-85.2,267.8-90.9,322.3-12.7c8.4,12,14.4,24.7,17.8,38.8
				c0.1,0.3,0.2,0.7,0.2,1C618.6,206.2,619.9,206,619.9,204.5z"/>
			<g id="Path_1_" transform="translate(30.000000, 35.000000)">
				<path class="st0" d="M317.8,426.6v-8.4c-5.3,9-15,14.5-26.4,14.5c-11.4,0-24.5-6.7-24.5-33.2v-53.2l18.2-3.4v55.4
					c0,4.9,0.8,11.8,4.5,15.1c6.7,6.2,20,2.4,28-11.6v-55.5l18.1-3.4v88.5h-13.1C319.9,431.3,317.8,429.2,317.8,426.6z"/>
				<path class="st0" d="M516,406.1l20.3-62h18.4l-30.4,86.5l-0.2,0.7h-0.7h-13c-2.1,0-3.9-1.4-4.6-3.3l-30-83.9h19.8L516,406.1z"/>
				<path class="st0" d="M407.4,368l-19.4,63.2H374c-2.1,0-3.9-1.3-4.5-3.2l-24.1-84h19.8l15.6,59.8l18.6-59.8h17.6l19.1,59.8
					l15.6-59.8h18.4l-24.1,87.2h-14.2c-2.2,0-4-1.3-4.5-2.7L407.4,368z"/>
			</g>
		</g>
	</g>
</g>
</svg>
