<svg width="1768" height="608" viewBox="0 0 1768 608" fill="none" xmlns="http://www.w3.org/2000/svg">
<mask id="path-1-inside-1_368_1382" fill="white">
<path fill-rule="evenodd" clip-rule="evenodd" d="M1566.93 1084.47L1767.28 884.107L883.642 0.464889L0.000261657 884.107L200.359 1084.47L883.642 401.183L1566.93 1084.47Z"/>
</mask>
<path fill-rule="evenodd" clip-rule="evenodd" d="M1566.93 1084.47L1767.28 884.107L883.642 0.464889L0.000261657 884.107L200.359 1084.47L883.642 401.183L1566.93 1084.47Z" fill="url(#paint0_linear_368_1382)"/>
<path d="M1767.28 884.107L1769.41 886.228L1771.53 884.107L1769.41 881.986L1767.28 884.107ZM1566.93 1084.47L1564.8 1086.59L1566.93 1088.71L1569.05 1086.59L1566.93 1084.47ZM883.642 0.464889L885.764 -1.65633L883.642 -3.77767L881.521 -1.65633L883.642 0.464889ZM0.000261657 884.107L-2.12108 881.986L-4.24241 884.107L-2.12108 886.228L0.000261657 884.107ZM200.359 1084.47L198.238 1086.59L200.359 1088.71L202.481 1086.59L200.359 1084.47ZM883.642 401.183L885.764 399.062L883.642 396.941L881.521 399.062L883.642 401.183ZM1765.16 881.986L1564.8 1082.34L1569.05 1086.59L1769.41 886.228L1765.16 881.986ZM881.521 2.58623L1765.16 886.228L1769.41 881.986L885.764 -1.65633L881.521 2.58623ZM2.1216 886.228L885.764 2.58623L881.521 -1.65633L-2.12108 881.986L2.1216 886.228ZM202.481 1082.34L2.1216 881.986L-2.12108 886.228L198.238 1086.59L202.481 1082.34ZM202.481 1086.59L885.764 403.305L881.521 399.062L198.238 1082.34L202.481 1086.59ZM881.521 403.305L1564.8 1086.59L1569.05 1082.34L885.764 399.062L881.521 403.305Z" fill="url(#paint1_linear_368_1382)" mask="url(#path-1-inside-1_368_1382)"/>
<defs>
<linearGradient id="paint0_linear_368_1382" x1="883.642" y1="1084.47" x2="883.642" y2="0.465011" gradientUnits="userSpaceOnUse">
<stop stop-color="#0E4F72" stop-opacity="0.2"/>
<stop offset="1" stop-color="#0E4F72" stop-opacity="0"/>
</linearGradient>
<linearGradient id="paint1_linear_368_1382" x1="883.642" y1="1084.47" x2="883.642" y2="0.465011" gradientUnits="userSpaceOnUse">
<stop stop-color="#E84631"/>
<stop offset="1" stop-opacity="0"/>
</linearGradient>
</defs>
</svg>
