<svg width="1768" height="608" viewBox="0 0 1768 608" fill="none" xmlns="http://www.w3.org/2000/svg">
<mask id="path-1-inside-1_368_1379" fill="white">
<path fill-rule="evenodd" clip-rule="evenodd" d="M200.359 -476L0 -275.641L883.642 608.001L1767.28 -275.641L1566.93 -476L883.642 207.283L200.359 -476Z"/>
</mask>
<path fill-rule="evenodd" clip-rule="evenodd" d="M200.359 -476L0 -275.641L883.642 608.001L1767.28 -275.641L1566.93 -476L883.642 207.283L200.359 -476Z" fill="url(#paint0_linear_368_1379)"/>
<path d="M0 -275.641L-2.12132 -277.762L-4.24264 -275.641L-2.12132 -273.52L0 -275.641ZM200.359 -476L202.48 -478.121L200.359 -480.243L198.238 -478.121L200.359 -476ZM883.642 608.001L881.521 610.123L883.642 612.244L885.763 610.123L883.642 608.001ZM1767.28 -275.641L1769.41 -273.52L1771.53 -275.641L1769.41 -277.762L1767.28 -275.641ZM1566.93 -476L1569.05 -478.121L1566.93 -480.243L1564.8 -478.121L1566.93 -476ZM883.642 207.283L881.521 209.404L883.642 211.526L885.763 209.404L883.642 207.283ZM2.12132 -273.52L202.48 -473.879L198.238 -478.121L-2.12132 -277.762L2.12132 -273.52ZM885.763 605.88L2.12132 -277.762L-2.12132 -273.52L881.521 610.123L885.763 605.88ZM1765.16 -277.762L881.521 605.88L885.763 610.123L1769.41 -273.52L1765.16 -277.762ZM1564.8 -473.879L1765.16 -273.52L1769.41 -277.762L1569.05 -478.121L1564.8 -473.879ZM1564.8 -478.121L881.521 205.162L885.763 209.404L1569.05 -473.879L1564.8 -478.121ZM885.763 205.162L202.48 -478.121L198.238 -473.879L881.521 209.404L885.763 205.162Z" fill="url(#paint1_linear_368_1379)" mask="url(#path-1-inside-1_368_1379)"/>
<defs>
<linearGradient id="paint0_linear_368_1379" x1="883.642" y1="-476" x2="883.642" y2="608.001" gradientUnits="userSpaceOnUse">
<stop stop-color="#0E4F72" stop-opacity="0.2"/>
<stop offset="1" stop-color="#0E4F72" stop-opacity="0"/>
</linearGradient>
<linearGradient id="paint1_linear_368_1379" x1="883.642" y1="-476" x2="883.642" y2="608.001" gradientUnits="userSpaceOnUse">
<stop stop-color="#E84631"/>
<stop offset="1" stop-opacity="0"/>
</linearGradient>
</defs>
</svg>
