<svg width="4065" height="4065" viewBox="0 0 4065 4065" fill="none" xmlns="http://www.w3.org/2000/svg">
<path d="M2733.74 0.721061L3368.35 635.326L2733.74 1269.93L2207.42 743.609L1613.94 1337.09L2031.98 1754.91L2558.3 1228.8L2666.59 1337.09L2031.98 1971.47L1397.38 1337.09L2207.42 527.042L2733.74 1053.36L3151.78 635.326L2625.46 109.004L2733.74 0.721061Z" fill="url(#paint0_linear_416_2646)" fill-opacity="0.2"/>
<path d="M1330.45 4064.7L695.841 3430.1L1330.45 2795.49L1856.77 3321.82L2450.25 2728.34L2032.21 2310.52L1505.89 2836.62L1397.6 2728.34L2032.21 2093.95L2666.81 2728.34L1856.77 3538.38L1330.45 3012.06L912.407 3430.1L1438.73 3956.42L1330.45 4064.7Z" fill="url(#paint1_linear_416_2646)" fill-opacity="0.2"/>
<path d="M2028.26 2097.71L2135.83 2205.28L1474.13 2866.98L1366.56 2759.41L2028.26 2097.71Z" stroke="url(#paint2_linear_416_2646)"/>
<path d="M1928.01 2205.28L2035.58 2097.71L2697.28 2759.41L2589.71 2866.98L1928.01 2205.28Z" stroke="url(#paint3_linear_416_2646)"/>
<path d="M2035.58 1966.99L1928.01 1859.42L2589.71 1197.72L2697.28 1305.29L2035.58 1966.99Z" stroke="url(#paint4_linear_416_2646)"/>
<path d="M2135.83 1859.42L2028.26 1966.99L1366.56 1305.29L1474.13 1197.72L2135.83 1859.42Z" stroke="url(#paint5_linear_416_2646)"/>
<path d="M623.985 1953.42L731.556 1845.85L1393.26 2507.55L1285.69 2615.12L623.985 1953.42Z" stroke="url(#paint6_linear_416_2646)"/>
<path fill-rule="evenodd" clip-rule="evenodd" d="M634.605 696.361L0 1330.97L108.283 1439.25L634.605 912.928L1052.64 1330.97L526.321 1857.29L1336.37 2667.33L1970.75 2032.73L1620.03 1681.89L1620.15 1681.77L1511.88 1573.49L1511.77 1573.59L1336.37 1398.12L1228.08 1506.41L1403.48 1681.88L1052.62 2032.74L1160.9 2141.02L1511.74 1790.18L1754.19 2032.73L1336.37 2450.77L742.888 1857.29L1269.21 1330.97L634.605 696.361Z" fill="url(#paint7_linear_416_2646)" fill-opacity="0.2"/>
<path d="M4064.08 2734.37L3429.47 3368.97L2794.87 2734.37L3321.19 2208.04L2727.71 1614.57L2309.89 2032.6L2836 2558.93L2727.71 2667.21L2093.33 2032.6L2727.71 1398L3537.76 2208.04L3011.44 2734.37L3429.47 3152.4L3955.8 2626.08L4064.08 2734.37Z" fill="url(#paint8_linear_416_2646)" fill-opacity="0.2"/>
<path d="M3040.18 1786.07L3147.75 1893.64L2608.76 2432.63L2501.19 2325.06L3040.18 1786.07Z" stroke="url(#paint9_linear_416_2646)"/>
<path d="M1157.28 1434.35L1264.85 1326.78L1676.92 1738.85L1569.35 1846.42L1157.28 1434.35Z" stroke="url(#paint10_linear_416_2646)"/>
<path d="M2444.03 2383.67L2552.31 2491.95L3011.56 2032.69L2903.28 1924.42L2444.03 2383.67Z" fill="url(#paint11_linear_416_2646)" fill-opacity="0.2"/>
<defs>
<linearGradient id="paint0_linear_416_2646" x1="2450.62" y1="1416.63" x2="1361.16" y2="-799.079" gradientUnits="userSpaceOnUse">
<stop offset="0.177083" stop-color="#4EA3D0" stop-opacity="0.22"/>
<stop offset="1" stop-color="#E8F5FC" stop-opacity="0"/>
</linearGradient>
<linearGradient id="paint1_linear_416_2646" x1="1613.57" y1="2648.79" x2="2703.03" y2="4864.5" gradientUnits="userSpaceOnUse">
<stop offset="0.177083" stop-color="#4EA3D0" stop-opacity="0.22"/>
<stop offset="1" stop-color="#E8F5FC" stop-opacity="0"/>
</linearGradient>
<linearGradient id="paint2_linear_416_2646" x1="2078.38" y1="2161.08" x2="1752.4" y2="2484.06" gradientUnits="userSpaceOnUse">
<stop stop-color="#062231" stop-opacity="0"/>
<stop offset="1" stop-color="#E84631"/>
</linearGradient>
<linearGradient id="paint3_linear_416_2646" x1="2214.5" y1="2372.96" x2="2345.09" y2="2508.76" gradientUnits="userSpaceOnUse">
<stop stop-color="#062231" stop-opacity="0"/>
<stop offset="1" stop-color="#E84631"/>
</linearGradient>
<linearGradient id="paint4_linear_416_2646" x1="1985.46" y1="1903.62" x2="2311.44" y2="1580.64" gradientUnits="userSpaceOnUse">
<stop stop-color="#062231" stop-opacity="0"/>
<stop offset="1" stop-color="#E84631"/>
</linearGradient>
<linearGradient id="paint5_linear_416_2646" x1="1849.34" y1="1691.74" x2="1718.75" y2="1555.93" gradientUnits="userSpaceOnUse">
<stop stop-color="#062231" stop-opacity="0"/>
<stop offset="1" stop-color="#E84631"/>
</linearGradient>
<linearGradient id="paint6_linear_416_2646" x1="777.873" y1="2015.9" x2="1119.23" y2="2355.06" gradientUnits="userSpaceOnUse">
<stop stop-color="#E84631"/>
<stop offset="1" stop-color="#062231" stop-opacity="0"/>
</linearGradient>
<linearGradient id="paint7_linear_416_2646" x1="917.632" y1="1251.27" x2="2007.35" y2="3467.03" gradientUnits="userSpaceOnUse">
<stop offset="0.177083" stop-color="#4EA3D0" stop-opacity="0.22"/>
<stop offset="1" stop-color="#E8F5FC" stop-opacity="0"/>
</linearGradient>
<linearGradient id="paint8_linear_416_2646" x1="2648.17" y1="2451.24" x2="4863.88" y2="1361.78" gradientUnits="userSpaceOnUse">
<stop offset="0.177083" stop-color="#4EA3D0" stop-opacity="0.22"/>
<stop offset="1" stop-color="#E8F5FC" stop-opacity="0"/>
</linearGradient>
<linearGradient id="paint9_linear_416_2646" x1="3002.21" y1="1944.89" x2="2512.7" y2="2419.9" gradientUnits="userSpaceOnUse">
<stop stop-color="#E84631"/>
<stop offset="1" stop-color="#062231" stop-opacity="0"/>
</linearGradient>
<linearGradient id="paint10_linear_416_2646" x1="1292.88" y1="1449.1" x2="1657.52" y2="1822.22" gradientUnits="userSpaceOnUse">
<stop stop-color="#E84631"/>
<stop offset="1" stop-color="#062231" stop-opacity="0"/>
</linearGradient>
<linearGradient id="paint11_linear_416_2646" x1="2631.19" y1="2312.23" x2="2501.08" y2="1942.44" gradientUnits="userSpaceOnUse">
<stop offset="0.177083" stop-color="#4EA3D0" stop-opacity="0.22"/>
<stop offset="1" stop-color="#E8F5FC" stop-opacity="0"/>
</linearGradient>
</defs>
</svg>
