<svg width="793" height="1270" viewBox="0 0 793 1270" fill="none" xmlns="http://www.w3.org/2000/svg">
<mask id="path-1-inside-1_368_1388" fill="white">
<path fill-rule="evenodd" clip-rule="evenodd" d="M-291 1317.93L-90.6408 1518.28L793.001 634.642L-90.6406 -249L-291 -48.6409L392.283 634.642L-291 1317.93Z"/>
</mask>
<path fill-rule="evenodd" clip-rule="evenodd" d="M-291 1317.93L-90.6408 1518.28L793.001 634.642L-90.6406 -249L-291 -48.6409L392.283 634.642L-291 1317.93Z" fill="url(#paint0_linear_368_1388)"/>
<path d="M-90.6408 1518.28L-92.7622 1520.41L-90.6408 1522.53L-88.5195 1520.41L-90.6408 1518.28ZM-291 1317.93L-293.121 1315.8L-295.243 1317.93L-293.121 1320.05L-291 1317.93ZM793.001 634.642L795.123 636.764L797.244 634.642L795.123 632.521L793.001 634.642ZM-90.6406 -249L-88.5193 -251.121L-90.6406 -253.243L-92.7619 -251.121L-90.6406 -249ZM-291 -48.6409L-293.121 -50.7622L-295.242 -48.6409L-293.121 -46.5195L-291 -48.6409ZM392.283 634.642L394.404 636.764L396.526 634.642L394.404 632.521L392.283 634.642ZM-88.5195 1516.16L-288.879 1315.8L-293.121 1320.05L-92.7622 1520.41L-88.5195 1516.16ZM790.88 632.521L-92.7622 1516.16L-88.5195 1520.41L795.123 636.764L790.88 632.521ZM-92.7619 -246.879L790.88 636.764L795.123 632.521L-88.5193 -251.121L-92.7619 -246.879ZM-288.878 -46.5195L-88.5193 -246.879L-92.7619 -251.121L-293.121 -50.7622L-288.878 -46.5195ZM-293.121 -46.5195L390.162 636.764L394.404 632.521L-288.878 -50.7622L-293.121 -46.5195ZM390.162 632.521L-293.121 1315.8L-288.879 1320.05L394.404 636.764L390.162 632.521Z" fill="url(#paint1_linear_368_1388)" mask="url(#path-1-inside-1_368_1388)"/>
<defs>
<linearGradient id="paint0_linear_368_1388" x1="-291" y1="634.642" x2="793.001" y2="634.642" gradientUnits="userSpaceOnUse">
<stop stop-color="#0E4F72" stop-opacity="0.2"/>
<stop offset="1" stop-color="#0E4F72" stop-opacity="0"/>
</linearGradient>
<linearGradient id="paint1_linear_368_1388" x1="-291" y1="634.642" x2="793.001" y2="634.642" gradientUnits="userSpaceOnUse">
<stop stop-color="#E84631"/>
<stop offset="1" stop-opacity="0"/>
</linearGradient>
</defs>
</svg>
